<svg width="17" height="13" viewBox="0 0 17 13" fill="none" xmlns="http://www.w3.org/2000/svg">
<path d="M8.2581 5.61185C8.0866 5.76427 8.0866 6.00872 8.2581 6.16114C8.96677 6.79096 8.96677 7.81477 8.2581 8.44459L4.53678 11.7519C3.82811 12.3817 2.67612 12.3817 1.96745 11.7519L1.40763 11.2543C0.698962 10.6245 0.698962 9.6007 1.40763 8.97088L5.12896 5.66361C5.30046 5.51119 5.30046 5.26674 5.12896 5.11432C4.95745 4.96189 4.6824 4.96189 4.51089 5.11432L0.789568 8.42159C0.281526 8.8731 0 9.47416 0 10.1126C0 10.7511 0.27829 11.3521 0.789568 11.8036L1.34938 12.3012C1.87361 12.7671 2.56286 13 3.25211 13C3.94137 13 4.63062 12.7671 5.15484 12.3012L8.87617 8.99389C9.92461 8.0621 9.92461 6.54363 8.87617 5.61185C8.7079 5.45942 8.42961 5.45942 8.2581 5.61185Z" fill="#303030"/>
<path d="M15.3178 1.19626L14.7578 0.698778C13.709 -0.232926 11.9999 -0.232926 10.9511 0.698778L7.22849 4.00575C6.1797 4.93745 6.1797 6.45579 7.22849 7.38749C7.40005 7.5399 7.6752 7.5399 7.84676 7.38749C8.01832 7.23508 8.01832 6.99065 7.84676 6.83825C7.13785 6.20848 7.13785 5.18476 7.84676 4.555L11.5693 1.24802C12.2782 0.61826 13.4306 0.61826 14.1395 1.24802L14.6995 1.74551C15.4084 2.37527 15.4084 3.39899 14.6995 4.02876L10.977 7.33573C10.8054 7.48814 10.8054 7.73257 10.977 7.88497C11.0611 7.95974 11.1744 8 11.2845 8C11.3945 8 11.5078 7.96262 11.592 7.88497L15.3146 4.578C15.8228 4.12653 16.1044 3.52552 16.1044 2.88713C16.1044 2.24874 15.826 1.64774 15.3178 1.19626Z" fill="#303030"/>
</svg>
