<svg width="83" height="83" viewBox="0 0 83 83" fill="none" xmlns="http://www.w3.org/2000/svg">
<g clip-path="url(#clip0_8742_31220)">
<path d="M21.7 60.3C29.8186 60.3 36.4 53.7186 36.4 45.6C36.4 37.4814 29.8186 30.9 21.7 30.9C13.5814 30.9 7 37.4814 7 45.6C7 53.7186 13.5814 60.3 21.7 60.3Z" fill="url(#paint0_linear_8742_31220)"/>
<path d="M24.3 26.6C26.6748 26.6 28.6 24.6748 28.6 22.3C28.6 19.9252 26.6748 18 24.3 18C21.9252 18 20 19.9252 20 22.3C20 24.6748 21.9252 26.6 24.3 26.6Z" fill="url(#paint1_linear_8742_31220)"/>
<path d="M36.1001 37.9C35.6001 38.4 35.6001 39.3 36.1001 39.8L42.8001 46.9C43.0001 47.2 43.4001 47.3 43.7001 47.3C44.0001 47.3 44.3001 47.2 44.6001 46.9L51.3001 39.8C51.8001 39.3 51.8001 38.4 51.3001 37.9C50.8001 37.4 50.0001 37.4 49.5001 37.9L45.0001 42.7V19.7C45.0001 19 44.4001 18.4 43.7001 18.4C43.0001 18.4 42.4001 19 42.4001 19.7V42.8L37.8001 38C37.4001 37.4 36.6001 37.4 36.1001 37.9Z" fill="black"/>
<path d="M60.1002 31.4L64.7002 48.3C64.7002 48.4 64.7002 48.5001 64.7002 48.7001V55.7001C64.7002 61.0001 60.5002 65.4001 55.2002 65.4001H31.2002C26.0002 65.4001 21.7002 61.1001 21.7002 55.7001V48.7001C21.7002 48.6001 21.7002 48.5 21.7002 48.3L26.3002 31.4C26.4002 31 26.7002 30.7 27.0002 30.5L27.1002 30.4C27.3002 30.3 27.5002 30.3 27.6002 30.3H36.0002C36.7002 30.3 37.3002 30.9 37.3002 31.6C37.3002 32.3 36.7002 33 36.0002 33H28.7002L24.8002 47.3H34.6002C35.3002 47.3 35.9002 47.9 35.9002 48.6V49.8C35.9002 51.6 37.3002 53 39.0002 53H47.0002C48.7002 53 50.1002 51.6 50.1002 49.8V48.6C50.1002 47.9 50.7002 47.3 51.4002 47.3H61.6002L57.8002 33H50.5002C49.8002 33 49.2002 32.4 49.2002 31.7C49.2002 31 49.8002 30.4 50.5002 30.4H58.7002C58.9002 30.4 59.1002 30.4 59.2002 30.5L59.3002 30.6C59.8002 30.7 60.0002 31 60.1002 31.4ZM55.3002 62.6C59.1002 62.6 62.1002 59.5 62.1002 55.6V50H52.8002C52.7002 53.2 50.2002 55.8 47.0002 55.8H39.0002C35.9002 55.8 33.3002 53.2 33.2002 50H24.3002V55.7001C24.3002 59.6001 27.4002 62.7001 31.1002 62.7001H55.3002V62.6Z" fill="black"/>
</g>
<defs>
<linearGradient id="paint0_linear_8742_31220" x1="36.4795" y1="30.8563" x2="7" y2="60.3358" gradientUnits="userSpaceOnUse">
<stop offset="0.3958" stop-color="#A9FFE0"/>
<stop offset="1" stop-color="#86D5FF"/>
</linearGradient>
<linearGradient id="paint1_linear_8742_31220" x1="28.6319" y1="18" x2="20.0298" y2="26.6022" gradientUnits="userSpaceOnUse">
<stop offset="0.3958" stop-color="#A9FFE0"/>
<stop offset="1" stop-color="#86D5FF"/>
</linearGradient>
<clipPath id="clip0_8742_31220">
<rect width="57.7" height="47.3" fill="white" transform="translate(7 18)"/>
</clipPath>
</defs>
</svg>
