<svg width="83" height="83" viewBox="0 0 83 83" fill="none" xmlns="http://www.w3.org/2000/svg">
<g clip-path="url(#clip0_8742_31232)">
<path d="M11.9 53.9001H5.5C4.6 52.0001 4.1 50 4 47.8H11.2C11.3 50 11.5 52.0001 11.9 53.9001Z" fill="url(#paint0_linear_8742_31232)"/>
<path d="M15.9999 63.2001C11.9999 62.0001 8.4999 59.2001 6.3999 55.7001H12.2999C13.1999 58.8001 14.3999 61.4001 15.9999 63.2001Z" fill="url(#paint1_linear_8742_31232)"/>
<path d="M29.0999 46H21.8999V39.3H28.1999C28.6999 41.3 29.0999 43.6 29.0999 46Z" fill="url(#paint2_linear_8742_31232)"/>
<path d="M27.8999 55.7001C26.5999 60.1001 24.3999 63.3001 21.8999 63.9001V55.7001H27.8999Z" fill="url(#paint3_linear_8742_31232)"/>
<path d="M35.6002 55.7001C33.5002 59.2001 30.2002 61.9001 26.2002 63.1001C27.8002 61.3001 29.0002 58.8001 29.9002 55.7001H35.6002Z" fill="url(#paint4_linear_8742_31232)"/>
<path d="M20.0999 30.1V37.5H14.3999C15.6999 33.5 17.7999 30.7 20.0999 30.1Z" fill="url(#paint5_linear_8742_31232)"/>
<path d="M20.1002 55.7001V63.8001C17.6002 63.1001 15.5002 60.0001 14.2002 55.7001H20.1002Z" fill="url(#paint6_linear_8742_31232)"/>
<path d="M27.6999 37.5H21.8999V30C24.2999 30.6 26.3999 33.4 27.6999 37.5Z" fill="url(#paint7_linear_8742_31232)"/>
<path d="M29.0999 47.8C28.9999 49.9 28.7999 52 28.3999 53.8H21.8999V47.8H29.0999V47.8Z" fill="url(#paint8_linear_8742_31232)"/>
<path d="M20.1 47.8V53.8H13.8C13.4 52 13.1 50 13 47.8H20.1Z" fill="url(#paint9_linear_8742_31232)"/>
<path d="M20.1 39.3V46H13C13.1 43.6 13.4 41.3 13.9 39.3H20.1Z" fill="url(#paint10_linear_8742_31232)"/>
<path d="M12 39.3C11.5 41.4 11.2 43.6 11.2 46H4C4.1 43.6 4.8 41.3 5.8 39.3H12Z" fill="url(#paint11_linear_8742_31232)"/>
<path d="M15.9999 30.7001C14.4999 32.3001 13.2999 34.7001 12.4999 37.5001H6.8999C8.9999 34.3001 12.2999 31.8001 15.9999 30.7001Z" fill="url(#paint12_linear_8742_31232)"/>
<path d="M38.0002 47.8C37.9002 49.9 37.4002 52 36.5002 53.8H30.2002C30.6002 51.9 30.8002 49.9 30.9002 47.8H38.0002V47.8Z" fill="url(#paint13_linear_8742_31232)"/>
<path d="M38.0001 46H30.9001C30.8001 43.6 30.6001 41.3 30.1001 39.3H36.2001C37.2001 41.3 37.9001 43.6 38.0001 46Z" fill="url(#paint14_linear_8742_31232)"/>
<path d="M35.1001 37.5H29.6001C28.8001 34.7 27.6001 32.4 26.1001 30.8C29.9001 31.9 33.0001 34.3 35.1001 37.5Z" fill="url(#paint15_linear_8742_31232)"/>
<path d="M21.9001 63.8C21.6001 63.9 21.4001 63.9001 21.1001 63.9001C21.4001 63.9001 21.7001 63.9 21.9001 63.8Z" fill="url(#paint16_linear_8742_31232)"/>
<path d="M20.8001 63.9001C20.6001 63.9001 20.3001 63.9001 20.1001 63.9001V63.8C20.2001 63.8 20.3001 63.8001 20.3001 63.9001H20.4001C20.6001 63.9001 20.7001 63.9001 20.8001 63.9001Z" fill="url(#paint17_linear_8742_31232)"/>
<path d="M21.1001 29.9C20.8001 29.9 20.5001 29.9 20.1001 30V29.9C20.4001 29.9 20.7001 29.9 21.1001 29.9C21.0001 29.9 21.0001 29.9 21.1001 29.9Z" fill="url(#paint18_linear_8742_31232)"/>
<path d="M6.8998 37.5L5.7998 39.3C6.0998 38.7 6.4998 38 6.8998 37.5Z" fill="url(#paint19_linear_8742_31232)"/>
<path d="M6.8998 37.5L5.7998 39.3C6.0998 38.7 6.4998 38 6.8998 37.5Z" fill="url(#paint20_linear_8742_31232)"/>
<path d="M36.6001 53.9C36.3001 54.5 36.0001 55.1 35.6001 55.7L36.6001 53.9Z" fill="url(#paint21_linear_8742_31232)"/>
<path d="M6.3999 55.7C5.9999 55.1 5.6999 54.5 5.3999 53.9L6.3999 55.7Z" fill="url(#paint22_linear_8742_31232)"/>
<path d="M36.6001 53.9C36.3001 54.5 36.0001 55.1 35.6001 55.7L36.6001 53.9Z" fill="url(#paint23_linear_8742_31232)"/>
<path d="M6.3999 55.7C5.9999 55.1 5.6999 54.5 5.3999 53.9L6.3999 55.7Z" fill="url(#paint24_linear_8742_31232)"/>
<path d="M62.2001 31.7C62.2001 33.7 61.1001 35.6 59.2001 37.2C55.9001 39.9 50.3001 41.7 43.9001 41.7C37.5001 41.7 31.8001 39.9 28.6001 37.2C26.7001 35.6 25.6001 33.7 25.6001 31.7C25.6001 26.1 33.8001 21.6 43.9001 21.6C54.0001 21.6 62.2001 26.1 62.2001 31.7Z" stroke="black" stroke-width="2.5" stroke-miterlimit="10"/>
<path d="M62.2001 31.7V42.7C62.2001 44.7 61.1001 46.6 59.2001 48.2C55.9001 50.9 50.3001 52.7 43.9001 52.7C37.5001 52.7 31.8001 50.9 28.6001 48.2C26.7001 46.6 25.6001 44.7 25.6001 42.7V31.7C25.6001 33.7 26.7001 35.6 28.6001 37.2C31.9001 39.9 37.5001 41.7 43.9001 41.7C50.3001 41.7 56.0001 39.9 59.2001 37.2C61.1001 35.6 62.2001 33.7 62.2001 31.7Z" stroke="black" stroke-width="2.5" stroke-miterlimit="10"/>
<path d="M62.2001 42.7V53.7C62.2001 55.7 61.1001 57.6 59.2001 59.2C55.9001 61.9 50.3001 63.7 43.9001 63.7C37.5001 63.7 31.8001 61.9 28.6001 59.2C26.7001 57.6 25.6001 55.7 25.6001 53.7V42.7C25.6001 44.7 26.7001 46.6 28.6001 48.2C31.9001 50.9 37.5001 52.7 43.9001 52.7C50.3001 52.7 56.0001 50.9 59.2001 48.2C61.1001 46.6 62.2001 44.7 62.2001 42.7Z" stroke="black" stroke-width="2.5" stroke-miterlimit="10"/>
<path d="M25.5 53.6C25.5 55.6 26.6 57.5 28.5 59.1C31.8 61.8 37.4 63.6 43.8 63.6C50.2 63.6 55.9 61.8 59.1 59.1C61 57.5 62.1 55.6 62.1 53.6" stroke="black" stroke-width="2.5" stroke-miterlimit="10"/>
<path d="M8.9 27.8C11.6062 27.8 13.8 25.6062 13.8 22.9C13.8 20.1938 11.6062 18 8.9 18C6.1938 18 4 20.1938 4 22.9C4 25.6062 6.1938 27.8 8.9 27.8Z" fill="url(#paint25_linear_8742_31232)"/>
</g>
<defs>
<linearGradient id="paint0_linear_8742_31232" x1="18.8928" y1="30.9981" x2="7.29389" y2="52.0479" gradientUnits="userSpaceOnUse">
<stop offset="0.3958" stop-color="#A9FFE0"/>
<stop offset="1" stop-color="#86D5FF"/>
</linearGradient>
<linearGradient id="paint1_linear_8742_31232" x1="25.0435" y1="34.3875" x2="13.4446" y2="55.4373" gradientUnits="userSpaceOnUse">
<stop offset="0.3958" stop-color="#A9FFE0"/>
<stop offset="1" stop-color="#86D5FF"/>
</linearGradient>
<linearGradient id="paint2_linear_8742_31232" x1="28.9096" y1="36.5176" x2="17.3107" y2="57.5676" gradientUnits="userSpaceOnUse">
<stop offset="0.3958" stop-color="#A9FFE0"/>
<stop offset="1" stop-color="#86D5FF"/>
</linearGradient>
<linearGradient id="paint3_linear_8742_31232" x1="34.1994" y1="39.4325" x2="22.6005" y2="60.4824" gradientUnits="userSpaceOnUse">
<stop offset="0.3958" stop-color="#A9FFE0"/>
<stop offset="1" stop-color="#86D5FF"/>
</linearGradient>
<linearGradient id="paint4_linear_8742_31232" x1="39.9458" y1="42.5987" x2="28.3469" y2="63.6486" gradientUnits="userSpaceOnUse">
<stop offset="0.3958" stop-color="#A9FFE0"/>
<stop offset="1" stop-color="#86D5FF"/>
</linearGradient>
<linearGradient id="paint5_linear_8742_31232" x1="20.22" y1="31.7295" x2="8.6211" y2="52.7794" gradientUnits="userSpaceOnUse">
<stop offset="0.3958" stop-color="#A9FFE0"/>
<stop offset="1" stop-color="#86D5FF"/>
</linearGradient>
<linearGradient id="paint6_linear_8742_31232" x1="29.7206" y1="36.9645" x2="18.1217" y2="58.0143" gradientUnits="userSpaceOnUse">
<stop offset="0.3958" stop-color="#A9FFE0"/>
<stop offset="1" stop-color="#86D5FF"/>
</linearGradient>
<linearGradient id="paint7_linear_8742_31232" x1="24.6072" y1="34.1469" x2="13.0083" y2="55.1968" gradientUnits="userSpaceOnUse">
<stop offset="0.3958" stop-color="#A9FFE0"/>
<stop offset="1" stop-color="#86D5FF"/>
</linearGradient>
<linearGradient id="paint8_linear_8742_31232" x1="32.1009" y1="38.2761" x2="20.502" y2="59.3261" gradientUnits="userSpaceOnUse">
<stop offset="0.3958" stop-color="#A9FFE0"/>
<stop offset="1" stop-color="#86D5FF"/>
</linearGradient>
<linearGradient id="paint9_linear_8742_31232" x1="25.5099" y1="34.6443" x2="13.911" y2="55.6941" gradientUnits="userSpaceOnUse">
<stop offset="0.3958" stop-color="#A9FFE0"/>
<stop offset="1" stop-color="#86D5FF"/>
</linearGradient>
<linearGradient id="paint10_linear_8742_31232" x1="22.3822" y1="32.9208" x2="10.7833" y2="53.9707" gradientUnits="userSpaceOnUse">
<stop offset="0.3958" stop-color="#A9FFE0"/>
<stop offset="1" stop-color="#86D5FF"/>
</linearGradient>
<linearGradient id="paint11_linear_8742_31232" x1="15.8663" y1="29.3304" x2="4.2674" y2="50.3803" gradientUnits="userSpaceOnUse">
<stop offset="0.3958" stop-color="#A9FFE0"/>
<stop offset="1" stop-color="#86D5FF"/>
</linearGradient>
<linearGradient id="paint12_linear_8742_31232" x1="14.5712" y1="28.617" x2="2.9723" y2="49.6668" gradientUnits="userSpaceOnUse">
<stop offset="0.3958" stop-color="#A9FFE0"/>
<stop offset="1" stop-color="#86D5FF"/>
</linearGradient>
<linearGradient id="paint13_linear_8742_31232" x1="38.6836" y1="41.9032" x2="27.0847" y2="62.953" gradientUnits="userSpaceOnUse">
<stop offset="0.3958" stop-color="#A9FFE0"/>
<stop offset="1" stop-color="#86D5FF"/>
</linearGradient>
<linearGradient id="paint14_linear_8742_31232" x1="35.4662" y1="40.1303" x2="23.8673" y2="61.1802" gradientUnits="userSpaceOnUse">
<stop offset="0.3958" stop-color="#A9FFE0"/>
<stop offset="1" stop-color="#86D5FF"/>
</linearGradient>
<linearGradient id="paint15_linear_8742_31232" x1="29.2342" y1="36.6964" x2="17.6353" y2="57.7462" gradientUnits="userSpaceOnUse">
<stop offset="0.3958" stop-color="#A9FFE0"/>
<stop offset="1" stop-color="#86D5FF"/>
</linearGradient>
<linearGradient id="paint16_linear_8742_31232" x1="34.8442" y1="39.7871" x2="23.2449" y2="60.8372" gradientUnits="userSpaceOnUse">
<stop offset="0.3958" stop-color="#A9FFE0"/>
<stop offset="1" stop-color="#86D5FF"/>
</linearGradient>
<linearGradient id="paint17_linear_8742_31232" x1="33.9945" y1="39.3189" x2="22.3952" y2="60.369" gradientUnits="userSpaceOnUse">
<stop offset="0.3958" stop-color="#A9FFE0"/>
<stop offset="1" stop-color="#86D5FF"/>
</linearGradient>
<linearGradient id="paint18_linear_8742_31232" x1="19.7414" y1="31.4657" x2="8.14243" y2="52.5156" gradientUnits="userSpaceOnUse">
<stop offset="0.3958" stop-color="#A9FFE0"/>
<stop offset="1" stop-color="#86D5FF"/>
</linearGradient>
<linearGradient id="paint19_linear_8742_31232" x1="12.3884" y1="27.4142" x2="0.789514" y2="48.464" gradientUnits="userSpaceOnUse">
<stop offset="0.3958" stop-color="#A9FFE0"/>
<stop offset="1" stop-color="#86D5FF"/>
</linearGradient>
<linearGradient id="paint20_linear_8742_31232" x1="12.3884" y1="27.4142" x2="0.789514" y2="48.464" gradientUnits="userSpaceOnUse">
<stop offset="0.3958" stop-color="#A9FFE0"/>
<stop offset="1" stop-color="#86D5FF"/>
</linearGradient>
<linearGradient id="paint21_linear_8742_31232" x1="42.1301" y1="43.8023" x2="30.5312" y2="64.8521" gradientUnits="userSpaceOnUse">
<stop offset="0.3958" stop-color="#A9FFE0"/>
<stop offset="1" stop-color="#86D5FF"/>
</linearGradient>
<linearGradient id="paint22_linear_8742_31232" x1="19.0201" y1="31.0683" x2="7.42121" y2="52.1182" gradientUnits="userSpaceOnUse">
<stop offset="0.3958" stop-color="#A9FFE0"/>
<stop offset="1" stop-color="#86D5FF"/>
</linearGradient>
<linearGradient id="paint23_linear_8742_31232" x1="42.1301" y1="43.8023" x2="30.5312" y2="64.8521" gradientUnits="userSpaceOnUse">
<stop offset="0.3958" stop-color="#A9FFE0"/>
<stop offset="1" stop-color="#86D5FF"/>
</linearGradient>
<linearGradient id="paint24_linear_8742_31232" x1="19.0201" y1="31.0683" x2="7.42121" y2="52.1182" gradientUnits="userSpaceOnUse">
<stop offset="0.3958" stop-color="#A9FFE0"/>
<stop offset="1" stop-color="#86D5FF"/>
</linearGradient>
<linearGradient id="paint25_linear_8742_31232" x1="11.2347" y1="18.6032" x2="6.5389" y2="27.1252" gradientUnits="userSpaceOnUse">
<stop offset="0.3958" stop-color="#A9FFE0"/>
<stop offset="1" stop-color="#86D5FF"/>
</linearGradient>
<clipPath id="clip0_8742_31232">
<rect width="59.4" height="46.9" fill="white" transform="translate(4 18)"/>
</clipPath>
</defs>
</svg>
