<svg width="15" height="14" viewBox="0 0 15 14" fill="none" xmlns="http://www.w3.org/2000/svg">
<path d="M11.3577 4.12611C11.0836 3.96588 10.7311 3.96588 10.4178 4.12611L8.22454 5.44807L6.73629 6.28932L4.58225 7.61128C4.30809 7.77151 3.95561 7.77151 3.6423 7.61128L1.95822 6.56973C1.68407 6.4095 1.48825 6.08902 1.48825 5.72849V3.72552C1.48825 3.40504 1.64491 3.08457 1.95822 2.88427L3.6423 1.88279C3.91645 1.72255 4.26893 1.72255 4.58225 1.88279L6.26632 2.92433C6.54047 3.08457 6.73629 3.40504 6.73629 3.76558V5.08754L8.22454 4.20623V2.84421C8.22454 2.52374 8.06789 2.20326 7.75457 2.00297L4.62141 0.120178C4.34726 -0.0400593 3.99478 -0.0400593 3.68146 0.120178L0.469974 2.04303C0.156658 2.20326 0 2.52374 0 2.84421V6.60979C0 6.93027 0.156658 7.25074 0.469974 7.45104L3.6423 9.33383C3.91645 9.49406 4.26893 9.49406 4.58225 9.33383L6.73629 8.05193L8.22454 7.17062L10.3786 5.88872C10.6527 5.72849 11.0052 5.72849 11.3185 5.88872L13.0026 6.89021C13.2768 7.05045 13.4726 7.37092 13.4726 7.73145V9.73442C13.4726 10.0549 13.3159 10.3754 13.0026 10.5757L11.3577 11.5772C11.0836 11.7374 10.7311 11.7374 10.4178 11.5772L8.73368 10.5757C8.45953 10.4154 8.26371 10.095 8.26371 9.73442V8.45252L6.77546 9.33383V10.6558C6.77546 10.9763 6.93212 11.2967 7.24543 11.497L10.4178 13.3798C10.6919 13.5401 11.0444 13.5401 11.3577 13.3798L14.53 11.497C14.8042 11.3368 15 11.0163 15 10.6558V6.85015C15 6.52967 14.8433 6.2092 14.53 6.0089L11.3577 4.12611Z" fill="white"/>
</svg>
