<svg width="18" height="23" viewBox="0 0 18 23" fill="none" xmlns="http://www.w3.org/2000/svg">
<g clip-path="url(#clip0_10388_4416)">
<path d="M17.5265 8.68495C17.5265 9.3418 17.4545 9.98821 17.3207 10.6034C16.3224 11.3019 15.1183 11.6981 13.8216 11.6981C12.4013 11.6981 11.0943 11.2081 10.0446 10.3948C9.89018 10.2489 9.7358 10.1133 9.57114 9.98821C8.36702 9.02901 6.84387 8.466 5.19721 8.466C3.41677 8.466 1.7804 9.13327 0.535118 10.228C0.442494 9.72756 0.401328 9.20626 0.401328 8.68495C0.380744 3.88894 4.21951 0 8.95364 0C9.48881 0 10.0034 0.0521306 10.5077 0.145966C14.5008 0.886219 17.5265 4.42067 17.5265 8.68495Z" fill="white"/>
<path d="M13.976 13.6478C12.2471 13.6478 10.8989 13.262 9.8594 12.4696L9.82853 12.4383C9.68445 12.3028 9.54036 12.1777 9.38599 12.063C8.18187 11.1351 6.74105 10.6555 5.2076 10.6555C3.57124 10.6555 1.99662 11.2393 0.761632 12.2924C0.566091 12.4592 0.277927 12.4383 0.113261 12.2402C-0.0514044 12.0421 -0.0308212 11.7502 0.164719 11.5834C1.56438 10.3844 3.35511 9.72754 5.2076 9.72754C6.93659 9.72754 8.57295 10.2801 9.94174 11.3332C10.1167 11.4687 10.2814 11.6042 10.4357 11.7502C11.3002 12.407 12.4632 12.7198 13.976 12.7198C15.1596 12.7198 16.3019 12.3758 17.2796 11.7085C17.4958 11.5625 17.7839 11.6251 17.9177 11.8336C18.0618 12.0526 18.0001 12.3445 17.7942 12.48C16.6621 13.2411 15.3448 13.6478 13.976 13.6478Z" fill="white"/>
<path d="M1.63634 17.568C1.37905 17.568 1.17322 17.3595 1.17322 17.0988V13.3871C1.17322 13.1265 1.37905 12.918 1.63634 12.918C1.89363 12.918 2.09946 13.1265 2.09946 13.3871V17.0988C2.09946 17.3595 1.89363 17.568 1.63634 17.568Z" fill="white"/>
<path d="M3.71532 18.1622C3.45803 18.1622 3.2522 17.9537 3.2522 17.6931V12.334C3.2522 12.0734 3.45803 11.8649 3.71532 11.8649C3.97261 11.8649 4.17844 12.0734 4.17844 12.334V17.6931C4.17844 17.9537 3.97261 18.1622 3.71532 18.1622Z" fill="white"/>
<path d="M5.79418 23C5.53689 23 5.33105 22.7915 5.33105 22.5308V12.1255C5.33105 11.8649 5.53689 11.6564 5.79418 11.6564C6.05147 11.6564 6.2573 11.8649 6.2573 12.1255V22.5308C6.2573 22.7915 6.05147 23 5.79418 23Z" fill="white"/>
<path d="M7.87303 17.568C7.61574 17.568 7.40991 17.3595 7.40991 17.0988V13.1056C7.40991 12.845 7.61574 12.6365 7.87303 12.6365C8.13032 12.6365 8.33616 12.845 8.33616 13.1056V17.0988C8.33616 17.3595 8.13032 17.568 7.87303 17.568Z" fill="white"/>
<path d="M9.96227 15.8164C9.70498 15.8164 9.49915 15.6079 9.49915 15.3472V14.3776C9.49915 14.117 9.70498 13.9084 9.96227 13.9084C10.2196 13.9084 10.4254 14.117 10.4254 14.3776V15.3472C10.4254 15.6079 10.2196 15.8164 9.96227 15.8164Z" fill="white"/>
<path d="M12.0411 20.9982C11.7838 20.9982 11.578 20.7897 11.578 20.529V15.0657C11.578 14.8051 11.7838 14.5966 12.0411 14.5966C12.2984 14.5966 12.5042 14.8051 12.5042 15.0657V20.529C12.5042 20.7792 12.2984 20.9982 12.0411 20.9982Z" fill="white"/>
<path d="M14.1201 20.3622C13.8628 20.3622 13.657 20.1537 13.657 19.893V15.3472C13.657 15.0866 13.8628 14.8781 14.1201 14.8781C14.3774 14.8781 14.5832 15.0866 14.5832 15.3472V19.893C14.5832 20.1432 14.3774 20.3622 14.1201 20.3622Z" fill="white"/>
<path d="M16.199 17.2344C15.9417 17.2344 15.7358 17.0259 15.7358 16.7652V14.8572C15.7358 14.5966 15.9417 14.3881 16.199 14.3881C16.4563 14.3881 16.6621 14.5966 16.6621 14.8572V16.7652C16.6621 17.0154 16.4563 17.2344 16.199 17.2344Z" fill="white"/>
</g>
<defs>
<clipPath id="clip0_10388_4416">
<rect width="18" height="23" fill="white"/>
</clipPath>
</defs>
</svg>
