<svg width="12" height="15" viewBox="0 0 12 15" fill="none" xmlns="http://www.w3.org/2000/svg">
<path d="M11.9686 6.03038C12.2186 4.45436 10.947 3.60695 9.20972 3.04151L9.77344 0.90606L8.39759 0.582736L7.84821 2.66179C7.48673 2.57607 7.1157 2.49637 6.74546 2.41666L7.29883 0.324077L5.92298 0L5.35927 2.13469C5.05989 2.07003 4.7653 2.00687 4.48026 1.9392L4.48185 1.93243L2.58369 1.48504L2.21744 2.87308C2.21744 2.87308 3.23897 3.09414 3.21747 3.10767C3.77482 3.23926 3.87514 3.5874 3.85842 3.8641L3.21667 6.29656C3.25489 6.30558 3.30426 6.31911 3.35999 6.33942L3.21429 6.30558L2.31457 9.71327C2.2461 9.87268 2.07332 10.1125 1.68318 10.0216C1.69751 10.0404 0.683146 9.7862 0.683146 9.7862L0 11.2735L1.79147 11.6953C2.12428 11.7743 2.45072 11.857 2.7716 11.9344L2.20231 14.0939L3.57736 14.4173L4.14107 12.2818C4.51688 12.3773 4.88154 12.466 5.23824 12.5503L4.67612 14.6767L6.05197 15L6.62125 12.845C8.96847 13.2646 10.7329 13.0954 11.4757 11.0908C12.0745 9.47717 11.4463 8.54554 10.2114 7.93874C11.1111 7.74325 11.7878 7.18457 11.9686 6.03038V6.03038ZM8.82356 10.1945C8.39918 11.8089 5.5209 10.9359 4.58774 10.7171L5.34414 7.85603C6.27729 8.07634 9.26864 8.51171 8.82356 10.1945ZM9.24953 6.00707C8.86178 7.47556 6.46679 6.72891 5.69049 6.54619L6.37523 3.95208C7.15153 4.13479 9.65401 4.47541 9.24953 6.00707Z" fill="white"/>
</svg>
