<svg width="100" height="40" viewBox="0 0 100 40" fill="none" xmlns="http://www.w3.org/2000/svg">
<path d="M30.4323 0H9.6102C4.30263 0 0 4.29807 0 9.6V30.4C0 35.7019 4.30263 40 9.6102 40H30.4323C35.7398 40 40.0425 35.7019 40.0425 30.4V9.6C40.0425 4.29807 35.7398 0 30.4323 0Z" fill="url(#paint0_linear_5294_29710)"/>
<path fill-rule="evenodd" clip-rule="evenodd" d="M20.0206 32.7953C27.0974 32.7953 32.8342 27.0646 32.8342 19.9953C32.8342 12.9261 27.0974 7.19531 20.0206 7.19531C12.9439 7.19531 7.20703 12.9261 7.20703 19.9953C7.20703 27.0646 12.9439 32.7953 20.0206 32.7953ZM17.7593 13.2188H22.2817V17.784H17.7597V22.2065H22.2817V26.7716H17.7593V22.3491H13.2373V17.784H17.7593V13.2188ZM22.2825 17.784H26.8049V22.3491H22.2825V17.784Z" fill="black"/>
<path d="M68.7044 17.4347H65.5169C65.426 16.9119 65.2584 16.4489 65.0141 16.0455C64.7698 15.6364 64.4658 15.2898 64.1021 15.0057C63.7385 14.7216 63.3237 14.5085 62.8578 14.3665C62.3976 14.2188 61.9004 14.1449 61.3663 14.1449C60.4175 14.1449 59.5766 14.3835 58.8436 14.8608C58.1107 15.3324 57.5368 16.0256 57.122 16.9403C56.7073 17.8494 56.4999 18.9602 56.4999 20.2727C56.4999 21.608 56.7073 22.733 57.122 23.6477C57.5425 24.5568 58.1163 25.2443 58.8436 25.7102C59.5766 26.1705 60.4146 26.4006 61.3578 26.4006C61.8805 26.4006 62.3692 26.3324 62.8237 26.196C63.284 26.054 63.6959 25.8466 64.0595 25.5739C64.4288 25.3011 64.7385 24.9659 64.9885 24.5682C65.2442 24.1705 65.4203 23.7159 65.5169 23.2045L68.7044 23.2216C68.5851 24.0511 68.3266 24.8295 67.9288 25.5568C67.5368 26.2841 67.0226 26.9261 66.3862 27.483C65.7499 28.0341 65.0055 28.4659 64.1533 28.7784C63.301 29.0852 62.355 29.2386 61.3152 29.2386C59.7811 29.2386 58.4118 28.8835 57.2073 28.1733C56.0027 27.4631 55.0538 26.4375 54.3607 25.0966C53.6675 23.7557 53.3209 22.1477 53.3209 20.2727C53.3209 18.392 53.6703 16.7841 54.3692 15.4489C55.068 14.108 56.0198 13.0824 57.2243 12.3722C58.4288 11.6619 59.7925 11.3068 61.3152 11.3068C62.2868 11.3068 63.1902 11.4432 64.0254 11.7159C64.8607 11.9886 65.605 12.3892 66.2584 12.9176C66.9118 13.4403 67.4487 14.0824 67.8692 14.8438C68.2953 15.5994 68.5737 16.4631 68.7044 17.4347ZM71.6 29V11.5455H74.7619V26.3494H82.4494V29H71.6ZM85.7243 11.5455L90.2669 25.2841H90.4459L94.98 11.5455H98.4573L92.3038 29H88.4004L82.2555 11.5455H85.7243Z" fill="white"/>
<defs>
<linearGradient id="paint0_linear_5294_29710" x1="40.0425" y1="-1.19209e-06" x2="0.0425004" y2="40.0425" gradientUnits="userSpaceOnUse">
<stop offset="0.395833" stop-color="#A9FFE0"/>
<stop offset="1" stop-color="#86D5FF"/>
</linearGradient>
</defs>
</svg>
