<svg width="83" height="83" viewBox="0 0 83 83" fill="none" xmlns="http://www.w3.org/2000/svg">
<g clip-path="url(#clip0_8742_31274)">
<path d="M53.0874 47.5874C59.7395 35.1116 60.0753 22.3017 53.8374 18.9756C47.5995 15.6495 37.1501 23.0668 30.4979 35.5426C23.8458 48.0184 23.5099 60.8284 29.7478 64.1545C35.9857 67.4806 46.4352 60.0632 53.0874 47.5874Z" stroke="black" stroke-width="2.5" stroke-miterlimit="10"/>
<path d="M64.3819 53.6099C67.708 47.372 60.2907 36.9226 47.8149 30.2704C35.3391 23.6183 22.5291 23.2824 19.2031 29.5203C15.877 35.7582 23.2943 46.2077 35.7701 52.8599C48.2459 59.512 61.0559 59.8478 64.3819 53.6099Z" stroke="black" stroke-width="2.5" stroke-miterlimit="10"/>
<path d="M26.7 56.8C32.0572 56.8 36.4 52.4572 36.4 47.1C36.4 41.7429 32.0572 37.4 26.7 37.4C21.3428 37.4 17 41.7429 17 47.1C17 52.4572 21.3428 56.8 26.7 56.8Z" fill="url(#paint0_linear_8742_31274)"/>
<path d="M57.2 46.4C62.5572 46.4 66.9 42.0572 66.9 36.7C66.9 31.3428 62.5572 27 57.2 27C51.8428 27 47.5 31.3428 47.5 36.7C47.5 42.0572 51.8428 46.4 57.2 46.4Z" fill="url(#paint1_linear_8742_31274)"/>
<path d="M26.6997 44.9L25.8997 45.7L24.4997 44.3V51.6H23.3997V44.3L21.9997 45.6L21.1997 44.8L23.9997 42.1L26.6997 44.9ZM32.1997 49.3L29.4997 52L26.7997 49.3L27.5997 48.5L28.9997 49.9V42.6H30.0997V49.9L31.4997 48.5L32.1997 49.3Z" fill="black"/>
<path d="M57.7997 34.8V39.2C57.7997 39.6 57.5997 40.1 57.2997 40.4C56.9997 40.7 56.5997 40.9 56.0997 40.9H54.8997C54.7997 41.3 54.4997 41.6 54.1997 41.8C53.8997 42 53.4997 42.1 53.0997 42C52.6997 41.9 52.3997 41.7 52.0997 41.4C51.7997 41.1 51.6997 40.7 51.6997 40.3C51.6997 39.9 51.7997 39.5 52.0997 39.2C52.3997 38.9 52.6997 38.7 53.0997 38.6C53.4997 38.5 53.8997 38.6 54.1997 38.8C54.4997 39 54.7997 39.3 54.8997 39.7H56.0997C56.1997 39.7 56.3997 39.6 56.4997 39.5C56.5997 39.4 56.6997 39.3 56.6997 39.1V34.7C56.6997 34.3 56.8997 33.8 57.1997 33.5C57.4997 33.2 57.8997 33 58.3997 33H59.9997V31.3L62.7997 33.5L59.9997 35.9V34.2H58.2997C58.1997 34.2 57.9997 34.3 57.8997 34.4C57.7997 34.5 57.7997 34.6 57.7997 34.8Z" fill="black"/>
</g>
<defs>
<linearGradient id="paint0_linear_8742_31274" x1="17.424" y1="49.9287" x2="36.0742" y2="44.252" gradientUnits="userSpaceOnUse">
<stop offset="0.3958" stop-color="#A9FFE0"/>
<stop offset="1" stop-color="#86D5FF"/>
</linearGradient>
<linearGradient id="paint1_linear_8742_31274" x1="47.9143" y1="39.5339" x2="66.5645" y2="33.8571" gradientUnits="userSpaceOnUse">
<stop offset="0.3958" stop-color="#A9FFE0"/>
<stop offset="1" stop-color="#86D5FF"/>
</linearGradient>
<clipPath id="clip0_8742_31274">
<rect width="50" height="49.2" fill="white" transform="translate(17 17)"/>
</clipPath>
</defs>
</svg>
