<svg width="15" height="15" viewBox="0 0 15 15" fill="none" xmlns="http://www.w3.org/2000/svg">
<path d="M4.73262 8.22581H2.00535C0.882353 8.22581 0 9.1129 0 10.2419V12.9839C0 14.1129 0.882353 15 2.00535 15H4.73262C5.85561 15 6.73797 14.1129 6.73797 12.9839V10.2419C6.73797 9.19355 5.85561 8.22581 4.73262 8.22581ZM5.45455 13.0645C5.45455 13.4677 5.13369 13.7903 4.73262 13.7903H2.00535C1.60428 13.7903 1.28342 13.4677 1.28342 13.0645V10.3226C1.28342 9.91936 1.60428 9.59677 2.00535 9.59677H4.73262C5.13369 9.59677 5.45455 9.91936 5.45455 10.3226V13.0645V13.0645ZM4.73262 8.22581H2.00535C0.882353 8.22581 0 9.1129 0 10.2419V12.9839C0 14.1129 0.882353 15 2.00535 15H4.73262C5.85561 15 6.73797 14.1129 6.73797 12.9839V10.2419C6.73797 9.19355 5.85561 8.22581 4.73262 8.22581ZM5.45455 13.0645C5.45455 13.4677 5.13369 13.7903 4.73262 13.7903H2.00535C1.60428 13.7903 1.28342 13.4677 1.28342 13.0645V10.3226C1.28342 9.91936 1.60428 9.59677 2.00535 9.59677H4.73262C5.13369 9.59677 5.45455 9.91936 5.45455 10.3226V13.0645V13.0645ZM12.9947 8.22581H10.2674C9.14438 8.22581 8.26203 9.1129 8.26203 10.2419V12.9839C8.26203 14.1129 9.14438 15 10.2674 15H12.9947C14.1176 15 15 14.1129 15 12.9839V10.2419C15 9.19355 14.0374 8.22581 12.9947 8.22581ZM13.7166 13.0645C13.7166 13.4677 13.3957 13.7903 12.9947 13.7903H10.2674C9.86631 13.7903 9.54545 13.4677 9.54545 13.0645V10.3226C9.54545 9.91936 9.86631 9.59677 10.2674 9.59677H12.9947C13.3957 9.59677 13.7166 9.91936 13.7166 10.3226V13.0645ZM4.73262 8.22581H2.00535C0.882353 8.22581 0 9.1129 0 10.2419V12.9839C0 14.1129 0.882353 15 2.00535 15H4.73262C5.85561 15 6.73797 14.1129 6.73797 12.9839V10.2419C6.73797 9.19355 5.85561 8.22581 4.73262 8.22581ZM5.45455 13.0645C5.45455 13.4677 5.13369 13.7903 4.73262 13.7903H2.00535C1.60428 13.7903 1.28342 13.4677 1.28342 13.0645V10.3226C1.28342 9.91936 1.60428 9.59677 2.00535 9.59677H4.73262C5.13369 9.59677 5.45455 9.91936 5.45455 10.3226V13.0645V13.0645ZM12.9947 0H10.2674C9.14438 0 8.26203 0.887097 8.26203 2.01613V4.75806C8.26203 5.8871 9.14438 6.77419 10.2674 6.77419H12.9947C14.1176 6.77419 15 5.8871 15 4.75806V2.01613C15 0.887097 14.0374 0 12.9947 0ZM13.7166 4.75806C13.7166 5.16129 13.3957 5.48387 12.9947 5.48387H10.2674C9.86631 5.48387 9.54545 5.16129 9.54545 4.75806V2.01613C9.54545 1.6129 9.86631 1.29032 10.2674 1.29032H12.9947C13.3957 1.29032 13.7166 1.6129 13.7166 2.01613V4.75806Z" fill="white"/>
<path d="M3.36898 0C1.52406 0 0 1.53226 0 3.3871C0 5.24194 1.52406 6.77419 3.36898 6.77419C5.2139 6.77419 6.73797 5.24194 6.73797 3.3871C6.73797 1.53226 5.2139 0 3.36898 0ZM3.36898 5.48387C2.24599 5.48387 1.28342 4.51613 1.28342 3.3871C1.28342 2.25806 2.24599 1.29032 3.36898 1.29032C3.93048 1.29032 4.49198 1.53226 4.89305 1.93548C5.29412 2.33871 5.53476 2.82258 5.53476 3.3871C5.45455 4.59678 4.57219 5.48387 3.36898 5.48387ZM3.36898 0C1.52406 0 0 1.53226 0 3.3871C0 5.24194 1.52406 6.77419 3.36898 6.77419C5.2139 6.77419 6.73797 5.24194 6.73797 3.3871C6.73797 1.53226 5.2139 0 3.36898 0ZM3.36898 5.48387C2.24599 5.48387 1.28342 4.51613 1.28342 3.3871C1.28342 2.25806 2.24599 1.29032 3.36898 1.29032C3.93048 1.29032 4.49198 1.53226 4.89305 1.93548C5.29412 2.33871 5.53476 2.82258 5.53476 3.3871C5.45455 4.59678 4.57219 5.48387 3.36898 5.48387ZM3.36898 0C1.52406 0 0 1.53226 0 3.3871C0 5.24194 1.52406 6.77419 3.36898 6.77419C5.2139 6.77419 6.73797 5.24194 6.73797 3.3871C6.73797 1.53226 5.2139 0 3.36898 0ZM3.36898 5.48387C2.24599 5.48387 1.28342 4.51613 1.28342 3.3871C1.28342 2.25806 2.24599 1.29032 3.36898 1.29032C3.93048 1.29032 4.49198 1.53226 4.89305 1.93548C5.29412 2.33871 5.53476 2.82258 5.53476 3.3871C5.45455 4.59678 4.57219 5.48387 3.36898 5.48387ZM3.36898 0C1.52406 0 0 1.53226 0 3.3871C0 5.24194 1.52406 6.77419 3.36898 6.77419C5.2139 6.77419 6.73797 5.24194 6.73797 3.3871C6.73797 1.53226 5.2139 0 3.36898 0ZM3.36898 5.48387C2.24599 5.48387 1.28342 4.51613 1.28342 3.3871C1.28342 2.25806 2.24599 1.29032 3.36898 1.29032C3.93048 1.29032 4.49198 1.53226 4.89305 1.93548C5.29412 2.33871 5.53476 2.82258 5.53476 3.3871C5.45455 4.59678 4.57219 5.48387 3.36898 5.48387ZM3.36898 0C1.52406 0 0 1.53226 0 3.3871C0 5.24194 1.52406 6.77419 3.36898 6.77419C5.2139 6.77419 6.73797 5.24194 6.73797 3.3871C6.73797 1.53226 5.2139 0 3.36898 0ZM3.36898 5.48387C2.24599 5.48387 1.28342 4.51613 1.28342 3.3871C1.28342 2.25806 2.24599 1.29032 3.36898 1.29032C3.93048 1.29032 4.49198 1.53226 4.89305 1.93548C5.29412 2.33871 5.53476 2.82258 5.53476 3.3871C5.45455 4.59678 4.57219 5.48387 3.36898 5.48387ZM3.36898 0C1.52406 0 0 1.53226 0 3.3871C0 5.24194 1.52406 6.77419 3.36898 6.77419C5.2139 6.77419 6.73797 5.24194 6.73797 3.3871C6.73797 1.53226 5.2139 0 3.36898 0ZM3.36898 5.48387C2.24599 5.48387 1.28342 4.51613 1.28342 3.3871C1.28342 2.25806 2.24599 1.29032 3.36898 1.29032C3.93048 1.29032 4.49198 1.53226 4.89305 1.93548C5.29412 2.33871 5.53476 2.82258 5.53476 3.3871C5.45455 4.59678 4.57219 5.48387 3.36898 5.48387ZM3.36898 0C1.52406 0 0 1.53226 0 3.3871C0 5.24194 1.52406 6.77419 3.36898 6.77419C5.2139 6.77419 6.73797 5.24194 6.73797 3.3871C6.73797 1.53226 5.2139 0 3.36898 0ZM3.36898 5.48387C2.24599 5.48387 1.28342 4.51613 1.28342 3.3871C1.28342 2.25806 2.24599 1.29032 3.36898 1.29032C3.93048 1.29032 4.49198 1.53226 4.89305 1.93548C5.29412 2.33871 5.53476 2.82258 5.53476 3.3871C5.45455 4.59678 4.57219 5.48387 3.36898 5.48387ZM3.36898 0C1.52406 0 0 1.53226 0 3.3871C0 5.24194 1.52406 6.77419 3.36898 6.77419C5.2139 6.77419 6.73797 5.24194 6.73797 3.3871C6.73797 1.53226 5.2139 0 3.36898 0ZM3.36898 5.48387C2.24599 5.48387 1.28342 4.51613 1.28342 3.3871C1.28342 2.25806 2.24599 1.29032 3.36898 1.29032C3.93048 1.29032 4.49198 1.53226 4.89305 1.93548C5.29412 2.33871 5.53476 2.82258 5.53476 3.3871C5.45455 4.59678 4.57219 5.48387 3.36898 5.48387Z" fill="white"/>
</svg>
