<svg width="18" height="12" viewBox="0 0 18 12" fill="none" xmlns="http://www.w3.org/2000/svg">
<path d="M16.9479 0.64125C16.6771 0.408163 16.3542 0.0897995 15.7656 0.0102086C15.2135 -0.0693822 14.651 0.334257 14.2708 0.601455C13.8906 0.868652 13.1719 1.65319 12.875 1.89196C12.5781 2.13074 11.8177 2.35245 10.5938 3.15405C9.36979 3.95564 4.56771 7.32119 4.56771 7.32119L5.81771 7.33825L0.244792 10.4707H0.802083L0 11.1359C0 11.1359 0.708333 11.3405 1.30208 10.9312V11.1188C1.30208 11.1188 7.9375 8.26492 9.21875 9.00397L8.4375 9.25412C8.50521 9.25412 9.76563 9.34508 9.76563 9.34508C9.76563 9.34508 9.80729 10.2035 10.5677 10.755C11.3281 11.3007 11.3438 11.602 11.3438 11.602C11.3438 11.602 10.9479 11.7783 10.9479 12C10.9479 12 11.5313 11.8067 12.0729 11.8238C12.6146 11.8408 13.0885 12 13.0885 12C13.0885 12 13.0469 11.7612 12.5208 11.602C11.9896 11.4372 11.474 10.8175 11.2188 10.4764C10.9635 10.1353 10.7865 9.527 11.0052 8.9187C11.1875 8.40136 11.8229 8.1171 13.1354 7.37805C14.6823 6.50255 15.0365 5.85445 15.2552 5.34848C15.474 4.84251 15.7969 3.83625 15.9792 3.36439C16.2083 2.75609 16.4896 2.43204 16.724 2.23875C16.9531 2.04546 18 1.61908 18 1.61908C18 1.61908 17.2031 0.862968 16.9479 0.64125Z" fill="white"/>
</svg>
