<svg width="15" height="15" viewBox="0 0 15 15" fill="none" xmlns="http://www.w3.org/2000/svg">
<path d="M4.587 6.303L7.5 3.39L10.4145 6.3045L12.1095 4.6095L7.5 0L2.892 4.608L4.587 6.303ZM0 7.5L1.695 5.805L3.39 7.5L1.695 9.195L0 7.5ZM4.587 8.697L7.5 11.61L10.4145 8.6955L12.1095 10.3898L7.5 15L2.892 10.392L2.88975 10.3898L4.587 8.697ZM11.61 7.5L13.305 5.805L15 7.5L13.305 9.195L11.61 7.5ZM9.219 7.4985H9.2205V7.5L7.5 9.2205L5.78175 7.503L5.77875 7.5L5.78175 7.49775L6.0825 7.19625L6.22875 7.05L7.5 5.7795L9.21975 7.49925L9.219 7.4985Z" fill="white"/>
</svg>
