<svg width="9" height="20" viewBox="0 0 9 20" fill="none" xmlns="http://www.w3.org/2000/svg">
<path fill-rule="evenodd" clip-rule="evenodd" d="M4.5292 0L9 3.40002V16.8681L4.50414 19.8L0 15.9589V3.37842L4.5292 0ZM0.692308 4.42321L3.81301 6.77297L0.692308 9.12273V4.42321ZM0.692308 10.6786V15.4595L4.52506 18.7674L8.30769 16.3376V10.6786L4.5 13.5456L0.692308 10.6786ZM8.30769 9.12273L5.18699 6.77297L8.30769 4.42321V9.12273ZM7.98889 3.6287L4.5 6.25569L1.05385 3.66088L4.5 1.03523L7.98889 3.6287ZM4.15385 7.55088L1.03314 9.90065L4.15385 12.2504V7.55088ZM4.84615 12.2504L7.96686 9.90065L4.84615 7.55088V12.2504Z" fill="white"/>
</svg>
