<svg width="15" height="13" viewBox="0 0 15 13" fill="none" xmlns="http://www.w3.org/2000/svg">
<path d="M2.43759 9.53945C2.52809 9.44322 2.65254 9.38708 2.78453 9.38708H14.7541C14.9728 9.38708 15.0822 9.66776 14.9276 9.83216L12.5631 12.3462C12.4726 12.4425 12.3481 12.4986 12.2161 12.4986H0.246556C0.0278295 12.4986 -0.0815334 12.2179 0.0730832 12.0535L2.43759 9.53945Z" fill="white"/>
<path d="M2.43691 0.152368C2.53119 0.0561355 2.65564 0 2.78386 0H14.7534C14.9722 0 15.0815 0.280678 14.9269 0.445075L12.5624 2.95914C12.4719 3.05538 12.3475 3.11151 12.2155 3.11151H0.245884C0.0271581 3.11151 -0.0822047 2.83083 0.0724117 2.66644L2.43691 0.152368Z" fill="white"/>
<path d="M12.5631 4.8157C12.4726 4.71947 12.3481 4.66333 12.2161 4.66333H0.246556C0.0278295 4.66333 -0.0815334 4.94401 0.0730832 5.1084L2.43759 7.62247C2.52809 7.71871 2.65254 7.77484 2.78453 7.77484H14.7541C14.9728 7.77484 15.0822 7.49416 14.9276 7.32977L12.5631 4.8157Z" fill="white"/>
</svg>
