<svg width="19" height="18" viewBox="0 0 19 18" fill="none" xmlns="http://www.w3.org/2000/svg">
<path d="M15.9139 10.6335C15.4501 9.80902 14.708 9.80902 14.2441 10.6335L11.3154 15.81C10.8515 16.6209 11.2358 17.2967 12.1503 17.2967H17.9548C18.8825 17.2967 19.2668 16.6209 18.803 15.81L15.9139 10.6335Z" fill="white"/>
<path d="M12.5218 4.5379L10.9977 1.79421L10.3483 0.618344C9.88453 -0.206115 9.14237 -0.206115 8.67851 0.618344L0.196987 15.7965C-0.266848 16.6209 0.117472 17.2832 1.04514 17.2832H3.40407H5.02087H5.29917C6.06782 17.2832 7.02197 16.7291 7.4063 16.0398L12.5218 7.01127C12.8928 6.34902 12.8928 5.22721 12.5218 4.5379Z" fill="white"/>
</svg>
