<svg width="12" height="19" viewBox="0 0 12 19" fill="none" xmlns="http://www.w3.org/2000/svg">
<path d="M7.5125 5.60102C7.5125 2.99342 6.29032 0.758333 5.33383 0.0133041C5.33383 0.0133041 5.28069 -0.0399123 5.28069 0.0665204C5.22756 5.06886 2.73006 6.45248 1.34847 8.26184C-1.78669 12.4659 1.13591 17.0958 4.11165 18.0004C5.75894 18.4794 3.68655 17.149 3.42086 14.3817C3.10203 10.9759 7.5125 8.36827 7.5125 5.60102Z" fill="white"/>
<path d="M9.47857 7.56882C9.42543 8.20741 8.68149 9.48461 7.77814 10.7086C4.64299 14.8062 6.39655 16.7753 7.40618 17.8396C7.9907 18.4782 7.40618 17.8396 8.84091 17.201C8.94719 17.1478 11.6572 15.8174 11.9761 12.8372C12.2418 9.91034 10.2225 8.10098 9.53171 7.56882C9.53171 7.56882 9.47857 7.5156 9.47857 7.56882Z" fill="white"/>
</svg>
